<svg width="164" height="38" viewBox="0 0 164 38" fill="none" xmlns="http://www.w3.org/2000/svg">
<g clip-path="url(#clip0_1_2)">
<g filter="url(#filter0_dd_1_2)">
<path d="M27 2.1H11C6.63696 2.1 3.10001 5.63695 3.10001 10V26C3.10001 30.363 6.63696 33.9 11 33.9H27C31.3631 33.9 34.9 30.363 34.9 26V10C34.9 5.63695 31.3631 2.1 27 2.1Z" fill="white"/>
<path d="M27 2.1H11C6.63696 2.1 3.10001 5.63695 3.10001 10V26C3.10001 30.363 6.63696 33.9 11 33.9H27C31.3631 33.9 34.9 30.363 34.9 26V10C34.9 5.63695 31.3631 2.1 27 2.1Z" fill="url(#paint0_linear_1_2)"/>
<path d="M27 2.1H11C6.63696 2.1 3.10001 5.63695 3.10001 10V26C3.10001 30.363 6.63696 33.9 11 33.9H27C31.3631 33.9 34.9 30.363 34.9 26V10C34.9 5.63695 31.3631 2.1 27 2.1Z" stroke="#D0D5DD" stroke-width="0.2"/>
<path d="M18.3546 13.1827C22.7105 11.4503 27.4742 12.8184 29.6373 14.9132C30.106 15.3671 30.5041 15.8275 30.845 16.2851C31.0394 15.2107 31.0552 14.1405 30.8681 13.1055C30.1847 9.32646 26.6195 7.18558 23.4233 8.29146C20.2415 9.39237 19.0005 11.5321 19.0005 11.5321C19.0005 11.5321 17.7595 9.39237 14.5777 8.29146C11.3812 7.18558 7.81603 9.32669 7.1328 13.1055C6.62842 15.8944 7.58356 18.9391 9.61033 21.6298C10.0372 21.7732 10.4847 21.8809 10.9586 21.943C13.7978 22.3163 14.8184 21.557 16.0178 21.0486C16.8142 20.7112 17.4134 21.0942 17.3843 21.3626C17.3392 21.7786 15.7693 22.4895 16.106 22.6388C17.4351 23.2284 19.0718 23.2334 20.3053 22.18C21.838 20.8712 22.4114 21.7658 22.4114 21.7658C22.4114 21.7658 21.6502 23.7076 19.3581 24.6717C17.4457 25.4761 15.4419 25.6743 13.6107 25.4683C15.19 26.5846 17.0035 27.5204 19.0005 28.1882C24.7099 26.2784 28.9276 22.1871 30.4145 17.9096C29.4072 16.9157 28.1716 16.2995 26.6988 16.0763C23.8674 15.647 22.8322 16.3862 21.6228 16.8708C20.8198 17.1926 20.2285 16.7978 20.263 16.5299C20.3161 16.1148 21.8999 15.4351 21.5661 15.279C20.249 14.6633 18.6125 14.626 17.3585 15.6548C15.8003 16.9332 15.2446 16.0274 15.2446 16.0274C15.2446 16.0274 16.0438 14.1015 18.3546 13.1827ZM17.2709 18.5051H18.3709V17.4052H19.6296V18.5051H20.7296V19.7639H19.6296V20.8638H18.3709V19.7639H17.2709V18.5051Z" fill="url(#paint1_linear_1_2)"/>
<path d="M17.2709 18.5052H18.3709V17.4052H19.6296V18.5052H20.7295V19.7639H19.6378C21.2597 20.5834 24.2383 21.8027 27.8177 22.3451C28.9956 20.9517 29.8813 19.4428 30.4143 17.9096C29.4069 16.9157 28.1713 16.2996 26.6986 16.0763C23.8672 15.647 22.8319 16.3863 21.6226 16.8708C20.8196 17.1926 20.2282 16.7978 20.2627 16.5299C20.3159 16.1148 21.8997 15.4351 21.5659 15.279C20.2488 14.6633 18.6123 14.626 17.3583 15.6548C15.8 16.9332 15.2443 16.0274 15.2443 16.0274C15.2443 16.0274 16.0438 14.1013 18.3543 13.1823C22.7102 11.4499 27.4739 12.818 29.637 14.9128C30.1057 15.3666 30.5038 15.8271 30.8447 16.2847C31.0392 15.2102 31.055 14.14 30.8679 13.105C30.1844 9.326 26.6192 7.18512 23.423 8.291C20.2412 9.39191 19.0002 11.5316 19.0002 11.5316C19.0002 11.5316 17.7592 9.39191 14.5774 8.291C12.7519 7.65927 10.8067 8.0883 9.34619 9.27521C10.0323 10.7442 10.836 12.1168 13.1254 14.8773C14.9868 17.1222 17.2709 18.5052 17.2709 18.5052Z" fill="url(#paint2_linear_1_2)"/>
<path opacity="0.31" d="M27.277 9.64942C24.2712 8.13932 21.169 10.489 20.1851 11.7298C21.882 11.3724 23.3668 11.189 25.2457 11.5838C28.0252 12.1678 29.0654 13.1714 30.3064 14.6541C30.0871 11.9068 28.3519 10.1895 27.277 9.64942Z" fill="url(#paint3_linear_1_2)"/>
</g>
<path d="M46.5317 27V10.61H48.2917V17.98H57.0917V10.61H58.8517V27H57.0917V19.63H48.2917V27H46.5317ZM67.8569 27.264C66.7569 27.264 65.7596 27 64.8649 26.472C63.9849 25.9293 63.2883 25.1887 62.7749 24.25C62.2616 23.3113 62.0049 22.248 62.0049 21.06C62.0049 19.872 62.2543 18.8233 62.7529 17.914C63.2516 16.99 63.9263 16.264 64.7769 15.736C65.6423 15.208 66.6103 14.944 67.6809 14.944C68.5316 14.944 69.2869 15.1053 69.9469 15.428C70.6216 15.736 71.1936 16.1613 71.6629 16.704C72.1323 17.232 72.4916 17.8333 72.7409 18.508C72.9903 19.168 73.1149 19.85 73.1149 20.554C73.1149 20.7007 73.1076 20.8693 73.0929 21.06C73.0783 21.236 73.0563 21.4193 73.0269 21.61H63.0609V20.07H72.0809L71.2889 20.73C71.4209 19.9233 71.3256 19.2047 71.0029 18.574C70.6949 17.9287 70.2476 17.4227 69.6609 17.056C69.0743 16.6747 68.4143 16.484 67.6809 16.484C66.9476 16.484 66.2656 16.6747 65.6349 17.056C65.0189 17.4373 64.5349 17.9727 64.1829 18.662C63.8309 19.3367 63.6916 20.1433 63.7649 21.082C63.6916 22.0207 63.8383 22.842 64.2049 23.546C64.5863 24.2353 65.0996 24.7707 65.7449 25.152C66.4049 25.5333 67.1089 25.724 67.8569 25.724C68.7223 25.724 69.4483 25.5187 70.0349 25.108C70.6216 24.6973 71.0983 24.184 71.4649 23.568L72.8729 24.316C72.6383 24.844 72.2789 25.3353 71.7949 25.79C71.3109 26.23 70.7316 26.5893 70.0569 26.868C69.3969 27.132 68.6636 27.264 67.8569 27.264ZM79.2192 27.264C78.4712 27.264 77.8039 27.1247 77.2172 26.846C76.6306 26.5527 76.1686 26.1567 75.8312 25.658C75.4939 25.1593 75.3252 24.5873 75.3252 23.942C75.3252 23.326 75.4572 22.7687 75.7212 22.27C75.9852 21.7567 76.3959 21.324 76.9532 20.972C77.5106 20.62 78.2219 20.3707 79.0872 20.224L83.7072 19.454V20.95L79.4832 21.654C78.6326 21.8007 78.0166 22.072 77.6352 22.468C77.2686 22.864 77.0852 23.3333 77.0852 23.876C77.0852 24.404 77.2906 24.8513 77.7012 25.218C78.1266 25.5847 78.6692 25.768 79.3292 25.768C80.1359 25.768 80.8399 25.5993 81.4412 25.262C82.0426 24.91 82.5119 24.4407 82.8492 23.854C83.1866 23.2673 83.3552 22.6147 83.3552 21.896V18.904C83.3552 18.2 83.0986 17.628 82.5852 17.188C82.0719 16.748 81.4046 16.528 80.5832 16.528C79.8646 16.528 79.2339 16.7113 78.6912 17.078C78.1486 17.43 77.7452 17.892 77.4812 18.464L75.9852 17.65C76.2052 17.1513 76.5499 16.6967 77.0192 16.286C77.5032 15.8753 78.0532 15.5527 78.6692 15.318C79.2852 15.0687 79.9232 14.944 80.5832 14.944C81.4486 14.944 82.2112 15.1127 82.8712 15.45C83.5459 15.7873 84.0666 16.2567 84.4332 16.858C84.8146 17.4447 85.0052 18.1267 85.0052 18.904V27H83.3552V24.646L83.5972 24.888C83.3919 25.328 83.0692 25.7313 82.6292 26.098C82.2039 26.45 81.6979 26.736 81.1112 26.956C80.5392 27.1613 79.9086 27.264 79.2192 27.264ZM88.3991 27V10.346H90.0491V27H88.3991ZM97.9364 27.132C96.8804 27.132 96.0664 26.824 95.4944 26.208C94.9224 25.592 94.6364 24.712 94.6364 23.568V16.858H92.4584V15.208H93.0084C93.5071 15.208 93.9031 15.0467 94.1964 14.724C94.4898 14.3867 94.6364 13.9687 94.6364 13.47V12.48H96.2864V15.208H98.8824V16.858H96.2864V23.568C96.2864 23.964 96.3451 24.316 96.4624 24.624C96.5798 24.9173 96.7778 25.152 97.0564 25.328C97.3498 25.504 97.7384 25.592 98.2224 25.592C98.3398 25.592 98.4791 25.5847 98.6404 25.57C98.8018 25.5553 98.9411 25.5407 99.0584 25.526V27C98.8824 27.044 98.6844 27.0733 98.4644 27.088C98.2444 27.1173 98.0684 27.132 97.9364 27.132ZM101.956 27V10.346H103.606V17.496L103.232 17.408C103.525 16.6453 104.002 16.044 104.662 15.604C105.336 15.164 106.114 14.944 106.994 14.944C107.83 14.944 108.578 15.1347 109.238 15.516C109.912 15.8973 110.44 16.4253 110.822 17.1C111.218 17.76 111.416 18.508 111.416 19.344V27H109.766V19.982C109.766 19.2633 109.634 18.6547 109.37 18.156C109.106 17.6573 108.739 17.276 108.27 17.012C107.815 16.7333 107.294 16.594 106.708 16.594C106.121 16.594 105.593 16.7333 105.124 17.012C104.654 17.276 104.28 17.6647 104.002 18.178C103.738 18.6767 103.606 19.278 103.606 19.982V27H101.956ZM122.289 27.264C121.13 27.264 120.067 27.0587 119.099 26.648C118.131 26.2227 117.288 25.636 116.569 24.888C115.865 24.1253 115.315 23.2307 114.919 22.204C114.523 21.1773 114.325 20.048 114.325 18.816C114.325 17.584 114.523 16.4547 114.919 15.428C115.315 14.4013 115.865 13.5067 116.569 12.744C117.288 11.9813 118.131 11.3947 119.099 10.984C120.067 10.5587 121.13 10.346 122.289 10.346C123.404 10.346 124.401 10.544 125.281 10.94C126.176 11.336 126.924 11.8493 127.525 12.48C128.141 13.096 128.581 13.7487 128.845 14.438L127.195 15.164C126.784 14.2107 126.154 13.448 125.303 12.876C124.467 12.2893 123.462 11.996 122.289 11.996C121.086 11.996 120.016 12.282 119.077 12.854C118.138 13.426 117.405 14.2253 116.877 15.252C116.349 16.264 116.085 17.452 116.085 18.816C116.085 20.1653 116.349 21.3533 116.877 22.38C117.405 23.4067 118.138 24.206 119.077 24.778C120.016 25.3353 121.086 25.614 122.289 25.614C123.462 25.614 124.467 25.328 125.303 24.756C126.154 24.184 126.784 23.4213 127.195 22.468L128.845 23.194C128.581 23.8687 128.141 24.5213 127.525 25.152C126.924 25.768 126.176 26.274 125.281 26.67C124.401 27.066 123.404 27.264 122.289 27.264ZM134.95 27.264C134.202 27.264 133.534 27.1247 132.948 26.846C132.361 26.5527 131.899 26.1567 131.562 25.658C131.224 25.1593 131.056 24.5873 131.056 23.942C131.056 23.326 131.188 22.7687 131.452 22.27C131.716 21.7567 132.126 21.324 132.684 20.972C133.241 20.62 133.952 20.3707 134.818 20.224L139.438 19.454V20.95L135.214 21.654C134.363 21.8007 133.747 22.072 133.366 22.468C132.999 22.864 132.816 23.3333 132.816 23.876C132.816 24.404 133.021 24.8513 133.432 25.218C133.857 25.5847 134.4 25.768 135.06 25.768C135.866 25.768 136.57 25.5993 137.172 25.262C137.773 24.91 138.242 24.4407 138.58 23.854C138.917 23.2673 139.086 22.6147 139.086 21.896V18.904C139.086 18.2 138.829 17.628 138.316 17.188C137.802 16.748 137.135 16.528 136.314 16.528C135.595 16.528 134.964 16.7113 134.422 17.078C133.879 17.43 133.476 17.892 133.212 18.464L131.716 17.65C131.936 17.1513 132.28 16.6967 132.75 16.286C133.234 15.8753 133.784 15.5527 134.4 15.318C135.016 15.0687 135.654 14.944 136.314 14.944C137.179 14.944 137.942 15.1127 138.602 15.45C139.276 15.7873 139.797 16.2567 140.164 16.858C140.545 17.4447 140.736 18.1267 140.736 18.904V27H139.086V24.646L139.328 24.888C139.122 25.328 138.8 25.7313 138.36 26.098C137.934 26.45 137.428 26.736 136.842 26.956C136.27 27.1613 135.639 27.264 134.95 27.264ZM144.13 27V15.208H145.78V17.144L145.56 16.858C145.838 16.3007 146.256 15.8607 146.814 15.538C147.386 15.2153 148.075 15.054 148.882 15.054H149.63V16.704H148.596C147.745 16.704 147.063 16.968 146.55 17.496C146.036 18.024 145.78 18.772 145.78 19.74V27H144.13ZM156.931 27.264C155.831 27.264 154.834 27 153.939 26.472C153.059 25.9293 152.362 25.1887 151.849 24.25C151.336 23.3113 151.079 22.248 151.079 21.06C151.079 19.872 151.328 18.8233 151.827 17.914C152.326 16.99 153 16.264 153.851 15.736C154.716 15.208 155.684 14.944 156.755 14.944C157.606 14.944 158.361 15.1053 159.021 15.428C159.696 15.736 160.268 16.1613 160.737 16.704C161.206 17.232 161.566 17.8333 161.815 18.508C162.064 19.168 162.189 19.85 162.189 20.554C162.189 20.7007 162.182 20.8693 162.167 21.06C162.152 21.236 162.13 21.4193 162.101 21.61H152.135V20.07H161.155L160.363 20.73C160.495 19.9233 160.4 19.2047 160.077 18.574C159.769 17.9287 159.322 17.4227 158.735 17.056C158.148 16.6747 157.488 16.484 156.755 16.484C156.022 16.484 155.34 16.6747 154.709 17.056C154.093 17.4373 153.609 17.9727 153.257 18.662C152.905 19.3367 152.766 20.1433 152.839 21.082C152.766 22.0207 152.912 22.842 153.279 23.546C153.66 24.2353 154.174 24.7707 154.819 25.152C155.479 25.5333 156.183 25.724 156.931 25.724C157.796 25.724 158.522 25.5187 159.109 25.108C159.696 24.6973 160.172 24.184 160.539 23.568L161.947 24.316C161.712 24.844 161.353 25.3353 160.869 25.79C160.385 26.23 159.806 26.5893 159.131 26.868C158.471 27.132 157.738 27.264 156.931 27.264Z" fill="white"/>
</g>
<defs>
<filter id="filter0_dd_1_2" x="0" y="0" width="38" height="38" filterUnits="userSpaceOnUse" color-interpolation-filters="sRGB">
<feFlood flood-opacity="0" result="BackgroundImageFix"/>
<feColorMatrix in="SourceAlpha" type="matrix" values="0 0 0 0 0 0 0 0 0 0 0 0 0 0 0 0 0 0 127 0" result="hardAlpha"/>
<feOffset dy="1"/>
<feGaussianBlur stdDeviation="1"/>
<feColorMatrix type="matrix" values="0 0 0 0 0.0627451 0 0 0 0 0.0941176 0 0 0 0 0.156863 0 0 0 0.06 0"/>
<feBlend mode="normal" in2="BackgroundImageFix" result="effect1_dropShadow_1_2"/>
<feColorMatrix in="SourceAlpha" type="matrix" values="0 0 0 0 0 0 0 0 0 0 0 0 0 0 0 0 0 0 127 0" result="hardAlpha"/>
<feOffset dy="1"/>
<feGaussianBlur stdDeviation="1.5"/>
<feColorMatrix type="matrix" values="0 0 0 0 0.0627451 0 0 0 0 0.0941176 0 0 0 0 0.156863 0 0 0 0.1 0"/>
<feBlend mode="normal" in2="effect1_dropShadow_1_2" result="effect2_dropShadow_1_2"/>
<feBlend mode="normal" in="SourceGraphic" in2="effect2_dropShadow_1_2" result="shape"/>
</filter>
<linearGradient id="paint0_linear_1_2" x1="19" y1="2" x2="19" y2="34" gradientUnits="userSpaceOnUse">
<stop stop-color="white"/>
<stop offset="1" stop-color="#D0D5DD"/>
</linearGradient>
<linearGradient id="paint1_linear_1_2" x1="10.1989" y1="24.2137" x2="27.8347" y2="6.57788" gradientUnits="userSpaceOnUse">
<stop stop-color="#0076C1"/>
<stop offset="0.0737" stop-color="#0B82C6"/>
<stop offset="0.2766" stop-color="#269ED3"/>
<stop offset="0.4546" stop-color="#36AFDA"/>
<stop offset="0.587" stop-color="#3CB5DD"/>
</linearGradient>
<linearGradient id="paint2_linear_1_2" x1="10.1388" y1="24.2537" x2="27.8274" y2="6.56509" gradientUnits="userSpaceOnUse">
<stop stop-color="#00A482"/>
<stop offset="1" stop-color="#79DD83"/>
</linearGradient>
<linearGradient id="paint3_linear_1_2" x1="24.8608" y1="13.5072" x2="28.5288" y2="10.1131" gradientUnits="userSpaceOnUse">
<stop stop-color="#00A482"/>
<stop offset="1" stop-color="#79DD83"/>
</linearGradient>
<clipPath id="clip0_1_2">
<rect width="164" height="38" fill="white"/>
</clipPath>
</defs>
</svg>
